<?xml version="1.0" encoding="UTF-8" standalone="no"?>
<svg
   version="1.1"
   width="125.48217mm"
   height="63.982166mm"
   viewBox="0 0 125.48218 63.982167"
   id="svg181864"
   sodipodi:docname="Back_Case_Acrilico.svg"
   inkscape:version="1.2.2 (732a01da63, 2022-12-09)"
   xmlns:inkscape="http://www.inkscape.org/namespaces/inkscape"
   xmlns:sodipodi="http://sodipodi.sourceforge.net/DTD/sodipodi-0.dtd"
   xmlns="http://www.w3.org/2000/svg"
   xmlns:svg="http://www.w3.org/2000/svg"
   xmlns:rdf="http://www.w3.org/1999/02/22-rdf-syntax-ns#"
   xmlns:cc="http://creativecommons.org/ns#"
   xmlns:dc="http://purl.org/dc/elements/1.1/">
  <defs
     id="defs181868" />
  <sodipodi:namedview
     id="namedview181866"
     pagecolor="#ffffff"
     bordercolor="#000000"
     borderopacity="0.25"
     inkscape:showpageshadow="2"
     inkscape:pageopacity="0.0"
     inkscape:pagecheckerboard="0"
     inkscape:deskcolor="#d1d1d1"
     inkscape:document-units="mm"
     showgrid="false"
     inkscape:zoom="1.0335921"
     inkscape:cx="139.8037"
     inkscape:cy="-0.48374982"
     inkscape:window-width="1920"
     inkscape:window-height="1001"
     inkscape:window-x="-9"
     inkscape:window-y="-9"
     inkscape:window-maximized="1"
     inkscape:current-layer="svg181864" />
  <title
     id="title179984">SVG Image created as PCB_ACRU_Chamarra-F_Silkscreen.svg date 2025/08/31 10:38:49 </title>
  <desc
     id="desc179986">Image generated by PCBNEW </desc>
  <g
     style="fill:#000000;fill-opacity:1;stroke:#000000;stroke-linecap:round;stroke-linejoin:round;stroke-opacity:1"
     id="g179988"
     transform="translate(-84.619507,-118.52767)" />
  <metadata
     id="metadata188139">
    <rdf:RDF>
      <cc:Work
         rdf:about="">
        <dc:title>SVG Image created as PCB_ACRU_Chamarra-F_Silkscreen.svg date 2025/08/31 10:38:49 </dc:title>
      </cc:Work>
    </rdf:RDF>
  </metadata>
  <path
     style="fill:#000000;stroke-width:0.026796"
     d="m 55.291893,18.339852 c -0.0702,-0.0702 -0.0695,-0.0894 0.0132,-0.29796 0.0375,-0.0949 0.159,-0.40769 0.26981,-0.69507 0.11077,-0.2874 0.22105,-0.5376 0.24495,-0.55602 0.0249,-0.0192 0.12084,-0.0335 0.22529,-0.0335 0.15908,0 0.18673,0.008 0.22105,0.0603 0.077,0.11845 0.55328,1.37456 0.54578,1.43945 -0.0101,0.083 -0.12134,0.1491 -0.21281,0.12614 -0.0597,-0.015 -0.0962,-0.0899 -0.31689,-0.65092 l -0.24941,-0.63398 -0.22331,0.57311 c -0.12285,0.3152 -0.23903,0.60324 -0.25822,0.64008 -0.047,0.0901 -0.18284,0.10497 -0.25941,0.0283 z m 3.7727,-0.0113 c -0.19852,-0.0817 -0.28335,-0.1505 -0.4031,-0.32717 -0.26924,-0.39723 -0.1095,-0.94227 0.34119,-1.16414 0.12273,-0.0604 0.16892,-0.0661 0.60346,-0.0746 0.51874,-0.0101 0.53552,-0.005 0.54003,0.15293 0.004,0.15218 -0.0266,0.16354 -0.44451,0.16371 -0.2082,7e-5 -0.42341,0.0126 -0.47821,0.0278 -0.19607,0.0545 -0.36811,0.27306 -0.36811,0.46775 0,0.10296 0.0807,0.27797 0.16314,0.35377 0.12919,0.11882 0.237,0.14195 0.66015,0.14195 0.27338,0 0.40747,0.0101 0.42959,0.0321 0.0535,0.0535 0.0403,0.22961 -0.0196,0.26165 -0.0294,0.0157 -0.22924,0.0274 -0.46223,0.0271 -0.36726,-4.9e-4 -0.4263,-0.008 -0.56173,-0.0628 z m 2.86188,0.0145 c -0.039,-0.043 -0.0443,-0.13709 -0.0443,-0.77556 0,-0.72042 5.1e-4,-0.72691 0.0595,-0.76827 0.0502,-0.0351 0.16865,-0.0417 0.75204,-0.0417 0.42612,0 0.71244,0.0101 0.74433,0.0277 0.0604,0.0324 0.0739,0.22279 0.0184,0.25874 -0.0184,0.0113 -0.30481,0.0277 -0.6364,0.0351 l -0.60292,0.0134 v 0.14738 0.14738 l 0.2975,0.0133 c 0.33332,0.015 0.3858,0.0386 0.3858,0.17418 0,0.13542 -0.0526,0.15916 -0.38591,0.17417 l -0.29739,0.0134 v 0.14738 0.14738 l 0.6008,0.008 c 0.38814,0.005 0.6134,0.0177 0.63639,0.0367 0.049,0.0405 0.0448,0.19751 -0.006,0.24884 -0.0362,0.0362 -0.14306,0.0422 -0.75953,0.0422 -0.661,0 -0.72091,-0.004 -0.76177,-0.049 z m 3.34376,0.0113 c -0.0494,-0.036 -0.052,-0.0763 -0.052,-0.76604 v -0.72801 l 0.0633,-0.0512 c 0.0576,-0.0468 0.11165,-0.0512 0.61455,-0.0512 0.50887,0 0.56041,0.004 0.66997,0.0574 0.24254,0.11744 0.33899,0.40639 0.21864,0.65504 l -0.0548,0.11303 0.0546,0.0896 c 0.0456,0.0746 0.0546,0.13516 0.0548,0.36239 1e-4,0.30203 -0.0243,0.35695 -0.15843,0.35695 -0.1285,0 -0.16302,-0.0696 -0.16302,-0.32841 0,-0.21776 -0.004,-0.2335 -0.0715,-0.28667 -0.062,-0.0488 -0.10472,-0.0558 -0.32187,-0.0526 -0.27604,0.004 -0.33009,-0.0179 -0.33009,-0.13443 0,-0.14462 0.0438,-0.16669 0.34016,-0.17156 0.22447,-0.004 0.2802,-0.0131 0.32697,-0.0555 0.0712,-0.0646 0.0721,-0.16095 0.003,-0.23099 -0.0506,-0.0506 -0.0828,-0.0538 -0.47562,-0.047 l -0.42138,0.008 -0.0133,0.60557 c -0.0101,0.4581 -0.0224,0.61633 -0.0502,0.6498 -0.0451,0.0542 -0.16271,0.0574 -0.23276,0.006 z m 3.85571,-0.0101 c -0.16944,-0.0605 -0.30914,-0.16422 -0.4113,-0.30525 -0.13039,-0.18 -0.14693,-0.26488 -0.14693,-0.75421 0,-0.41543 0.004,-0.45393 0.052,-0.48903 0.0787,-0.0576 0.19292,-0.0474 0.24121,0.0215 0.0334,0.0476 0.0417,0.14191 0.0417,0.47027 0,0.30146 0.0101,0.42995 0.0378,0.48306 0.0866,0.16582 0.3015,0.30071 0.47715,0.29953 0.20688,-0.001 0.42173,-0.17116 0.47717,-0.37707 0.0159,-0.059 0.0266,-0.27742 0.0237,-0.4854 -0.005,-0.33923 -1.1e-4,-0.38182 0.0439,-0.41403 0.0706,-0.0516 0.18382,-0.0442 0.23793,0.0156 0.0413,0.0457 0.0456,0.10434 0.0375,0.51582 -0.0101,0.51436 -0.0344,0.6088 -0.20776,0.80628 -0.19635,0.22363 -0.605,0.31989 -0.90419,0.21299 z m -10.97934,-3.63021 c -0.13483,-0.0771 -0.20407,-0.17224 -0.22077,-0.30333 -0.008,-0.0612 0.0265,-0.32825 0.0824,-0.64012 0.10661,-0.59594 0.12773,-0.6411 0.29945,-0.6411 0.1187,0 0.19827,0.0836 0.19781,0.20796 -1.8e-4,0.0463 -0.0364,0.28873 -0.0804,0.53881 -0.0441,0.25008 -0.0801,0.45809 -0.0801,0.46224 0,0.0186 1.98121,0.005 1.99282,-0.0136 0.0101,-0.0167 0.31683,-1.72909 0.59092,-3.30153 0.54525,-3.1280597 0.66042,-3.7353997 0.72424,-3.8190697 0.13461,-0.17649 0.13105,-0.17606 1.37588,-0.16769 l 1.12171,0.008 0.096,0.0733 c 0.0582,0.0443 0.11429,0.12133 0.14257,0.19525 0.0459,0.1202 0.0453,0.1294 -0.0402,0.61006 -0.11052,0.6214 -0.12653,0.68227 -0.18837,0.71536 -0.066,0.0354 -0.17786,0.0349 -0.24505,-10e-4 -0.10472,-0.056 -0.10611,-0.13034 -0.0127,-0.66668 l 0.089,-0.51071 h -1.00127 c -0.55069,0 -1.00125,0.006 -1.00125,0.014 0,0.008 -0.10195,0.58953 -0.22648,1.2929 -0.12461,0.70338 -0.39581,2.2435197 -0.60276,3.4225497 -0.20695,1.17901 -0.38239,2.17846 -0.38987,2.22098 -0.0227,0.12869 -0.1163,0.25073 -0.23734,0.30934 -0.11026,0.0534 -0.15654,0.0555 -1.19811,0.055 -1.07173,-3.8e-4 -1.08461,-0.001 -1.18814,-0.0603 z m 7.47355,-0.33369 c -0.0832,-0.0203 -0.14267,-0.0855 -0.16193,-0.17777 -0.029,-0.13849 -0.62923,-2.81544 -0.63732,-2.84185 -0.004,-0.0133 -0.0526,0.17942 -0.10787,0.42847 -0.1502,0.67715 -0.12709,0.66229 -1.01979,0.65622 -0.61758,-0.004 -0.64722,-0.006 -0.70537,-0.0614 -0.074,-0.0696 -0.0758,-0.10347 -0.0101,-0.1854 0.0504,-0.0622 0.0613,-0.0634 0.63627,-0.0767 l 0.58509,-0.0133 0.19288,-0.84408 c 0.10611,-0.46424 0.19356,-0.8691 0.1944,-0.89969 0.004,-0.14941 0.28343,-0.23639 0.38802,-0.12083 0.043,0.0476 0.17835,0.61424 0.58455,2.44751 0.0613,0.27638 0.11932,0.49343 0.12901,0.48233 0.0101,-0.0113 0.0585,-0.20616 0.10838,-0.43347 0.13865,-0.63165 0.11705,-0.61837 1.0079,-0.61837 0.60775,0 0.64372,0.003 0.69936,0.0546 0.073,0.068 0.0748,0.14357 0.005,0.21331 -0.0501,0.0501 -0.0894,0.0536 -0.59778,0.0536 -0.39511,0 -0.55569,0.009 -0.58617,0.0335 -0.0276,0.0219 -0.10875,0.33349 -0.236,0.90437 -0.10674,0.47898 -0.20444,0.8907 -0.21714,0.91494 -0.0176,0.0336 -0.18095,0.11718 -0.19572,0.10019 -10e-4,-0.001 -0.0268,-0.009 -0.0563,-0.0161 z"
     id="path26572" />
  <path
     style="fill:#000000;stroke-width:0.189917"
     d="m 49.880883,58.841248 c -0.0438,-0.13051 -0.16992,-0.59067 -0.28027,-1.02243 -0.11036,-0.43177 -0.34213,-0.9018 -0.51503,-1.04455 -0.96361,-0.79544 -1.57925,-4.08207 -1.58095,-8.43996 -10e-4,-3.09896 0.30197,-5.36909 1.0761,-8.05746 1.35608,-4.70936 3.38125,-6.84811 8.04967,-8.50109 1.54519,-0.54711 2.08268,-0.83775 2.62761,-1.42095 0.79217,-0.84776 1.56247,-1.08409 3.53381,-1.08409 2.01453,0 2.74556,0.22942 3.51348,1.10251 0.52983,0.60241 0.97296,0.85804 2.18404,1.25987 2.21511,0.73497 4.38916,1.9461 5.53397,3.0829 1.52406,1.51334 2.6476,4.09334 3.53815,8.12473 0.35032,1.58575 0.41897,2.47901 0.41599,5.41263 -0.006,4.66572 -0.57175,7.70473 -1.61341,8.64744 -0.20827,0.1886 -0.43086,0.66856 -0.49453,1.06679 -0.0638,0.39823 -0.23478,0.82292 -0.3805,0.94373 -0.34734,0.28841 -2.0508,0.11232 -2.919,-0.30149 l -0.66218,-0.31561 0.0542,-2.69393 c 0.0298,-1.48169 0.18055,-3.77544 0.33501,-5.09722 l 0.28095,-2.40327 -0.47676,-1.49003 c -0.64948,-2.02988 -0.7767,-2.18082 -0.9252,-1.09753 -0.18413,1.34222 -0.14838,3.45044 0.0942,5.58331 0.21452,1.88783 0.21184,1.91553 -0.28483,2.87309 -0.2759,0.53176 -0.50293,1.194 -0.50453,1.47162 -0.003,0.64791 -0.15255,0.86058 -0.85173,1.21695 -0.96775,0.49331 -3.14357,0.71223 -7.06329,0.71074 -4.02324,-0.002 -5.88779,-0.20201 -6.80065,-0.7307 -0.45019,-0.2607 -0.60959,-0.52748 -0.75966,-1.27084 -0.10458,-0.51741 -0.33379,-1.14393 -0.5096,-1.39223 -0.28544,-0.40332 -0.30837,-0.93035 -0.21363,-4.93786 0.1159,-4.90535 0.0444,-5.15234 -0.79989,-2.75977 -0.54314,1.53929 -0.56507,2.11434 -0.19157,5.02336 0.15374,1.19689 0.2604,3.2872 0.23746,4.6451 l -0.042,2.46893 -0.94957,0.32403 c -1.13442,0.38712 -2.54186,0.44186 -2.65542,0.10339 z m 0.38276,-0.85462 c -0.12037,-0.65443 -0.48263,-1.3282 -0.48007,-0.89263 0.002,0.34549 0.39736,1.6048 0.50379,1.6048 0.059,0 0.0483,-0.3205 -0.0238,-0.7122 z m 1.0411,0.43437 c 0.002,-0.10846 0.0858,-0.0688 0.18711,0.0879 0.15255,0.23627 0.18502,0.22018 0.18979,-0.095 0.006,-0.31507 0.0372,-0.33126 0.18979,-0.0951 0.14689,0.22734 0.1886,0.1889 0.20588,-0.18978 l 0.0208,-0.4748 0.15195,0.4748 c 0.15076,0.47047 0.15255,0.46961 0.19695,-0.0951 0.0378,-0.48115 0.0578,-0.50159 0.12841,-0.13139 0.0462,0.24103 0.18383,0.40529 0.30649,0.36498 0.28305,-0.0933 0.41438,-1.84778 0.13824,-1.84778 -0.11023,0 -0.20021,0.0906 -0.20021,0.20111 0,0.11054 -0.0855,0.14838 -0.18979,0.0837 -0.10458,-0.0646 -0.19129,0.0372 -0.19277,0.22614 -0.002,0.29139 -0.031,0.30021 -0.18711,0.0587 -0.14718,-0.22762 -0.18919,-0.18949 -0.20916,0.18979 -0.0179,0.32773 -0.0519,0.37123 -0.11202,0.14063 -0.0616,-0.23686 -0.24908,-0.32196 -0.64368,-0.29198 -0.52304,0.0399 -0.55068,0.0828 -0.46002,0.71411 l 0.0965,0.67171 -0.26547,-0.75967 c -0.27888,-0.79825 -0.38661,-0.54916 -0.18919,0.43765 0.0831,0.41613 0.2175,0.57247 0.47476,0.5531 0.19724,-0.0149 0.3601,-0.1156 0.36171,-0.22406 z m -0.16267,-0.67178 c 0,-0.26099 0.0432,-0.36798 0.0959,-0.23745 0.0527,0.1305 0.0527,0.34421 0,0.47477 -0.0527,0.1305 -0.0959,0.0239 -0.0959,-0.23746 z m 1.71629,-0.095 c 0.003,-0.31338 0.0465,-0.41859 0.0948,-0.23389 0.0482,0.18472 0.045,0.44116 -0.006,0.56976 -0.0522,0.12871 -0.0915,-0.0239 -0.0876,-0.336 z m -1.33645,-0.0951 c 0,-0.261 0.0432,-0.36799 0.0959,-0.23746 0.0527,0.1305 0.0527,0.34421 0,0.47477 -0.0527,0.1305 -0.0959,0.0239 -0.0959,-0.23746 z m 22.74959,0.85461 c 0.0149,0.31598 0.0474,0.33194 0.20051,0.0951 0.1013,-0.15672 0.18532,-0.19634 0.18711,-0.0879 0.002,0.10845 0.16447,0.20915 0.36171,0.22405 0.24728,0.0179 0.39071,-0.13139 0.46148,-0.48186 0.0566,-0.27977 0.16059,-0.65842 0.2312,-0.84124 0.0751,-0.19396 0.0408,-0.33236 -0.0816,-0.33236 -0.1156,0 -0.2163,0.14957 -0.22346,0.33236 -0.0119,0.27202 -0.0366,0.28066 -0.14241,0.0474 -0.0709,-0.15672 -0.36411,-0.31233 -0.65136,-0.34594 -0.43169,-0.0503 -0.52676,0.0149 -0.54813,0.37985 l -0.0268,0.44089 -0.0864,-0.45808 c -0.0667,-0.3545 -0.12484,-0.39746 -0.25623,-0.18979 -0.13616,0.21511 -0.17043,0.20021 -0.17281,-0.0754 -0.002,-0.18889 -0.0885,-0.29078 -0.19277,-0.22613 -0.10457,0.0646 -0.18979,0.0369 -0.18979,-0.0617 0,-0.0983 -0.16238,-0.22138 -0.36066,-0.27322 -0.28036,-0.0733 -0.38607,0.0328 -0.4748,0.47638 -0.17966,0.89905 -0.1448,1.01807 0.3696,1.2524 0.67543,0.30774 0.99343,0.2753 1.09461,-0.11202 0.0608,-0.23299 0.0974,-0.19039 0.12216,0.14241 0.0328,0.43899 0.0476,0.44614 0.19872,0.0951 l 0.16327,-0.37985 z m -0.90914,-0.4748 c 0,-0.26099 0.0432,-0.36795 0.0959,-0.23745 0.0527,0.1305 0.0527,0.34424 0,0.4748 -0.0527,0.1305 -0.0959,0.0239 -0.0959,-0.23746 z m 1.69425,0.0793 c 0.009,-0.22137 0.0542,-0.26636 0.1147,-0.11471 0.0548,0.13706 0.0479,0.30093 -0.0149,0.36403 -0.0632,0.0632 -0.10816,-0.0492 -0.0998,-0.24938 z m -2.06707,-0.36399 c 0.003,-0.31338 0.0465,-0.41855 0.0944,-0.23389 0.0483,0.18472 0.045,0.44116 -0.006,0.56976 -0.0522,0.12871 -0.0915,-0.0239 -0.0876,-0.33597 z m 1.70223,0.095 c 0,-0.26099 0.0433,-0.36795 0.0959,-0.23745 0.0527,0.1305 0.0527,0.34421 0,0.4748 -0.0527,0.1305 -0.0959,0.0239 -0.0959,-0.23746 z m -0.37984,-0.18978 c 0,-0.261 0.0432,-0.36796 0.0959,-0.23746 0.0527,0.1305 0.0527,0.34421 0,0.4748 -0.0527,0.13049 -0.0959,0.0239 -0.0959,-0.23746 z m -1.70221,-0.28484 c 0.003,-0.31334 0.0465,-0.41857 0.0947,-0.23388 0.0483,0.18473 0.045,0.44116 -0.006,0.56975 -0.0522,0.12871 -0.0915,-0.0239 -0.0876,-0.33595 z m -10.64246,-1.12532 0.0649,-1.03037 -1.09237,-0.0617 -1.09238,-0.0617 3.9e-4,0.99706 c 3.9e-4,0.95649 0.3527,1.45092 0.40603,0.56972 l 0.0268,-0.4273 0.0807,0.41566 c 0.0808,0.41536 0.36057,0.5654 1.13188,0.60688 0.36469,0.0208 0.41689,-0.0912 0.47478,-1.00836 z m 2.2491,-0.0149 v -1.04455 h -0.9496 -0.94956 v 1.04455 1.04455 h 0.94956 0.9496 z m -1.58269,0.0149 c -0.0572,-0.14897 0.0238,-0.37675 0.17906,-0.50597 0.22793,-0.18919 0.34117,-0.17698 0.58093,0.0629 0.16387,0.16387 0.23985,0.3915 0.16923,0.50596 -0.18472,0.29878 -0.80662,0.25683 -0.92925,-0.0629 z m 0.63309,-0.21512 c 0,-0.16297 -0.0855,-0.24312 -0.18978,-0.17876 -0.10458,0.0646 -0.18979,0.19783 -0.18979,0.29615 0,0.0983 0.0855,0.17877 0.18979,0.17877 0.10457,0 0.18978,-0.13318 0.18978,-0.29616 z m 1.51933,0.095 c 0,-0.5161 -0.0855,-0.93838 -0.18979,-0.93838 -0.10458,0 -0.18979,0.47507 -0.18979,1.05577 0,0.65547 0.0721,1.01124 0.18979,0.93836 0.10458,-0.0646 0.18979,-0.53966 0.18979,-1.05575 z m 0.98384,0.0366 0.0342,-0.87997 0.0712,0.9021 c 0.0965,1.22577 0.43013,1.14688 0.43013,-0.10159 0,-0.87723 -0.0479,-1.00386 -0.37981,-1.00386 -0.2902,0 -0.38656,0.13616 -0.4083,0.57655 -0.0298,0.57336 -0.0298,0.57366 -0.10756,0.0542 -0.13765,-0.90887 -0.43372,-0.56451 -0.43372,0.5045 0,0.93325 0.0346,1.01772 0.37982,0.92744 0.30394,-0.0795 0.3867,-0.2753 0.41408,-0.97931 z m -7.63093,-0.12037 c 0,-0.57449 -0.0855,-1.04456 -0.18979,-1.04456 -0.20916,0 -0.26606,1.7598 -0.0632,1.96249 0.22852,0.22852 0.25325,0.13825 0.25325,-0.91793 z m 0.57268,0.80716 c 0.002,-0.15821 0.0643,-0.14242 0.1871,0.0474 0.1311,0.2029 0.18502,-0.0179 0.18711,-0.76646 0.002,-0.92567 -0.0426,-1.05131 -0.37692,-1.05131 -0.33194,0 -0.37985,0.12662 -0.37985,1.00382 0,0.55212 0.0855,1.00386 0.18979,1.00386 0.10458,0 0.19127,-0.10696 0.19277,-0.23746 z m 0.94668,-0.80716 c 0,-0.57449 -0.0855,-1.04456 -0.18979,-1.04456 -0.10458,0 -0.18979,0.47007 -0.18979,1.04456 0,0.5745 0.0855,1.04453 0.18979,1.04453 0.10458,0 0.18979,-0.47003 0.18979,-1.04453 z m 7.62985,0.23746 0.0331,-0.80715 0.073,0.81147 c 0.0986,1.09899 0.43047,0.82447 0.43047,-0.35622 0,-0.79625 -0.0527,-0.93783 -0.33235,-0.8909 -0.23776,0.0399 -0.36439,0.29895 -0.44495,0.91044 l -0.11262,0.85463 -0.0298,-0.90212 c -0.0417,-1.26148 -0.40967,-1.13357 -0.40967,0.14243 0,0.91792 0.0462,1.04455 0.37984,1.04455 0.31505,0 0.38548,-0.13765 0.41301,-0.80715 z m -15.00869,0.12872 c 0.22942,-0.20141 0.35473,-0.25922 0.27828,-0.12872 -0.17698,0.30268 0.1156,0.30938 0.41539,0.009 0.32059,-0.32061 0.28811,-2.72024 -0.0759,-5.61653 -0.30313,-2.41107 -0.30578,-2.41903 -1.09205,-3.27141 l -0.78818,-0.85447 0.80075,0.74429 c 0.5697,0.52959 0.82405,0.6665 0.88162,0.47462 0.37969,-1.26541 0.9852,-2.85226 1.29235,-3.38668 0.32502,-0.56555 0.3578,-0.87523 0.25713,-2.43129 -0.13736,-2.12731 -0.16507,-2.20671 -1.63884,-4.72828 l -1.15554,-1.97697 -0.33501,0.42927 c -1.29708,1.66216 -2.40153,4.77286 -3.05191,8.59573 -0.35096,2.06289 -0.40087,2.88318 -0.30348,4.98793 0.17772,3.84114 0.5938,6.03372 1.36967,7.21786 0.25891,0.39514 0.4038,0.43062 1.50741,0.36912 0.8626,-0.0479 1.34339,-0.17549 1.63814,-0.43404 z m -0.34787,-10.72953 c -0.32956,-0.72403 -0.55882,-1.3164 -0.50948,-1.3164 0.12781,0 1.26875,2.47272 1.18125,2.56025 -0.0399,0.0399 -0.34225,-0.51982 -0.67177,-1.24385 z m 0.67555,-6.3967 c -0.23627,-0.30122 -0.22942,-0.30793 0.0718,-0.0718 0.18294,0.14331 0.33236,0.29288 0.33236,0.33239 0,0.15642 -0.15582,0.0557 -0.40407,-0.2607 z m 4.83363,17.46444 c 0.0542,0.13498 0.10518,-0.20319 0.11352,-0.75173 0.009,-0.6721 -0.0622,-1.00166 -0.22257,-1.01119 -0.13049,-0.009 -0.42969,-0.05 -0.6647,-0.0939 -0.39671,-0.0739 -0.42731,-0.0119 -0.42731,0.86874 0,1.1553 0.32961,1.26339 0.43071,0.14123 l 0.0727,-0.80716 0.0331,0.92538 c 0.0268,0.77051 0.0778,0.88834 0.29958,0.70425 0.20469,-0.16983 0.2893,-0.16417 0.36484,0.0238 z m 11.35941,-0.41231 c 0.0239,-0.44674 0.0319,-0.4507 0.10815,-0.0546 0.1451,0.75326 0.43475,0.45699 0.46423,-0.4748 l 0.0298,-0.90211 0.11382,0.83874 c 0.0897,0.66069 0.1588,0.78162 0.3249,0.56975 0.1159,-0.14807 0.17191,-0.57932 0.12424,-0.95866 -0.0712,-0.56591 -0.15165,-0.67266 -0.44837,-0.59507 -0.19902,0.0522 -0.37159,0.23418 -0.38372,0.40478 -0.0178,0.26338 -0.0352,0.2601 -0.10904,-0.0208 -0.16894,-0.6466 -0.43929,-0.32032 -0.47204,0.56978 l -0.0331,0.90209 -0.0727,-0.80713 c -0.1007,-1.11675 -0.43068,-1.01661 -0.43068,0.1305 0,0.82068 0.0474,0.93419 0.37981,0.90917 0.26458,-0.0208 0.38769,-0.17459 0.40571,-0.5105 z m 7.57476,0.0396 c 0.82882,-1.05367 1.32545,-4.10215 1.32545,-8.13587 0,-4.74224 -1.31699,-9.81559 -3.21628,-12.39002 -0.36831,-0.4992 -0.71026,-0.78305 -0.86969,-0.72185 -0.16536,0.0635 -0.22614,0.006 -0.16417,-0.15613 0.18502,-0.48206 -2.51862,-2.05875 -4.94661,-2.88473 -1.30285,-0.44322 -1.79255,-0.54813 -1.58372,-0.33933 0.17638,0.17638 -1.45002,1.57286 -2.19398,1.88371 -0.37806,0.15791 -1.06542,0.28722 -1.5275,0.28722 -0.72248,0 -0.85062,0.0599 -0.91495,0.4273 -0.0411,0.23508 -0.0718,4.95684 -0.0683,10.49294 l 0.006,10.06558 2.46893,-0.0485 c 1.3579,-0.0269 3.17481,-0.14242 4.03759,-0.25712 1.33704,-0.17788 1.62748,-0.28276 1.96713,-0.71099 0.36587,-0.4613 0.38771,-0.64993 0.26696,-2.30661 -0.13855,-1.90307 -0.13825,-6.66613 7.7e-4,-10.14439 0.0718,-1.79573 0.15672,-2.22744 0.6344,-3.22859 0.30328,-0.6356 0.69472,-1.32659 0.86981,-1.53551 0.1752,-0.20886 0.10399,0.006 -0.1585,0.4748 -0.56835,1.01879 -1.10912,2.27903 -0.9779,2.27903 0.0516,0 0.27708,-0.36323 0.50138,-0.80717 0.68979,-1.36549 1.92503,-3.38828 2.01447,-3.29884 0.0468,0.0465 -0.43711,0.96739 -1.07492,2.04621 -1.34577,2.27622 -1.5004,2.75978 -1.53899,4.81359 -0.0238,1.32137 0.0456,1.68018 0.54032,2.75379 0.3129,0.67895 0.66915,1.60709 0.79166,2.06252 l 0.22286,0.82811 0.50931,-0.44757 0.50933,-0.44757 -0.52227,0.57947 c -0.37555,0.41667 -0.52229,0.78123 -0.52229,1.29774 0,0.39505 -0.13437,1.80053 -0.29863,3.12324 -0.29258,2.35735 -0.23597,4.39906 0.12246,4.39906 0.31013,0 0.34901,0.0119 0.98014,0.27917 0.34126,0.1451 1.02668,0.2613 1.52317,0.25892 0.73928,-0.003 0.97192,-0.0927 1.28532,-0.49119 z m -13.6305,-2.64924 c -0.32449,-0.12037 -0.30039,-0.75123 0.0337,-0.87937 0.14897,-0.0572 0.37672,0.0238 0.50594,0.17905 0.1883,0.22674 0.18144,0.3334 -0.0337,0.53571 -0.14778,0.13884 -0.37537,0.21302 -0.50593,0.16446 z m 0.52226,-0.43619 c 0,-0.10457 -0.12811,-0.18979 -0.28483,-0.18979 -0.15672,0 -0.28483,0.0855 -0.28483,0.18979 0,0.10458 0.12811,0.18979 0.28483,0.18979 0.15672,0 0.28483,-0.0855 0.28483,-0.18979 z m 0.21988,-0.75966 c 0,-0.261 0.0433,-0.36796 0.0959,-0.23746 0.0527,0.1305 0.0527,0.34421 0,0.4748 -0.0527,0.1305 -0.0959,0.0238 -0.0959,-0.23746 z m 4.67853,-1.6293 c -0.86617,-0.89612 -1.59831,-1.69288 -1.62697,-1.77058 -0.0298,-0.0778 0.11858,-0.29586 0.32747,-0.48484 0.34713,-0.31412 0.41792,-0.31841 0.82744,-0.05 0.2464,0.16149 1.02954,0.94338 1.74046,1.73772 1.25976,1.40754 1.28396,1.45381 0.95196,1.82066 -0.18741,0.20708 -0.40923,0.37643 -0.49307,0.37643 -0.0837,0 -0.86111,-0.73318 -1.72729,-1.6293 z m 1.74866,1.22764 c 0,-0.11649 -0.65578,-0.8856 -1.4573,-1.70923 -0.80152,-0.82366 -1.36609,-1.49755 -1.25458,-1.49755 0.11144,0 0.82808,0.69367 1.59236,1.54149 0.76431,0.84783 1.42452,1.43686 1.46715,1.30896 0.0426,-0.12782 -0.59249,-0.90653 -1.41138,-1.73025 -1.31661,-1.32441 -1.5215,-1.46506 -1.77084,-1.21572 -0.30433,0.30432 -0.32372,0.27739 1.87554,2.61194 0.92192,0.97862 0.95905,1.00535 0.95905,0.69036 z m -7.16936,-2.9605 c -0.32446,-0.12037 -0.30038,-0.75123 0.0337,-0.87938 0.14897,-0.0572 0.37672,0.0239 0.50597,0.17907 0.1883,0.22673 0.18144,0.33339 -0.0337,0.5357 -0.14778,0.13884 -0.3754,0.21303 -0.50596,0.16446 z m 0.52226,-0.43619 c 0,-0.10458 -0.12811,-0.18979 -0.28483,-0.18979 -0.15672,0 -0.28483,0.0855 -0.28483,0.18979 0,0.10458 0.12811,0.1898 0.28483,0.1898 0.15672,0 0.28483,-0.0855 0.28483,-0.1898 z m 9.70076,-1.82004 c 0.009,-0.22137 0.0542,-0.26635 0.11471,-0.11471 0.0548,0.13706 0.0483,0.30089 -0.0149,0.36403 -0.0632,0.0632 -0.10785,-0.0492 -0.0998,-0.24937 z m 0.18085,-0.55393 c 0,-0.10458 0.0828,-0.31808 0.18413,-0.47477 0.1013,-0.15672 0.18413,-0.19933 0.18413,-0.0951 0,0.10458 -0.0828,0.31812 -0.18413,0.4748 -0.1013,0.15672 -0.18413,0.19933 -0.18413,0.095 z m 0.37693,-0.89124 c -0.003,-0.17191 0.77001,-1.48271 0.87536,-1.48271 0.0447,0 -0.0462,0.23508 -0.20171,0.52226 -0.387,0.71474 -0.67013,1.1184 -0.67362,0.96045 z m -11.01808,-1.2816 c 0,-0.51138 0.35926,-0.68291 0.70541,-0.33679 0.34612,0.34612 0.1746,0.70541 -0.33679,0.70541 -0.23836,0 -0.36862,-0.1305 -0.36862,-0.36862 z m 0.58397,-0.0635 c -0.0238,-0.22703 -0.28394,-0.18323 -0.36558,0.0617 -0.0417,0.12543 0.0268,0.19366 0.15195,0.15194 0.12543,-0.0417 0.22137,-0.13794 0.21363,-0.21362 z m -0.58397,-4.49457 c 0,-0.51139 0.35926,-0.68292 0.70541,-0.3368 0.34612,0.34615 0.1746,0.70541 -0.33679,0.70541 -0.23836,0 -0.36862,-0.1305 -0.36862,-0.36861 z m 0.58397,-0.0635 c -0.0238,-0.22702 -0.28394,-0.18322 -0.36558,0.0617 -0.0417,0.12544 0.0268,0.19366 0.15195,0.15195 0.12543,-0.0417 0.22137,-0.13795 0.21363,-0.21363 z m 9.86144,-0.42256 c 0.24521,-0.261 0.48877,-0.4748 0.541,-0.4748 0.0522,0 -0.10577,0.21362 -0.35107,0.4748 -0.2452,0.261 -0.48877,0.4748 -0.541,0.4748 -0.0522,0 0.10577,-0.21363 0.35107,-0.4748 z m 0,-3.32355 c 0.11172,-0.20886 0.2461,-0.37984 0.29824,-0.37984 0.0522,0 0.003,0.17101 -0.10845,0.37984 -0.11173,0.20886 -0.2461,0.37985 -0.29824,0.37985 -0.0522,0 -0.003,-0.17102 0.10845,-0.37985 z m -10.37325,-0.65559 c -0.13228,-0.34478 0.0599,-0.6738 0.39353,-0.6738 0.2878,0 0.53936,0.51628 0.37832,0.7768 -0.16595,0.26845 -0.65425,0.2035 -0.77185,-0.10309 z m 0.51181,-0.15642 c -0.0238,-0.22703 -0.28394,-0.18323 -0.36558,0.0617 -0.0417,0.12544 0.0268,0.19366 0.15195,0.15196 0.12543,-0.0417 0.22137,-0.13796 0.21363,-0.21363 z m 7.96227,-1.18223 c -0.261,-0.14927 -0.38429,-0.27441 -0.27381,-0.27828 0.11053,-0.003 0.367,0.11887 0.56975,0.27201 0.46891,0.35468 0.31913,0.35772 -0.29616,0.006 z m -15.18117,20.92203 c -0.14302,-0.14301 -0.20767,-0.0656 -0.22107,0.26309 l -0.0179,0.46529 -0.1594,-0.47477 c -0.13318,-0.3971 -0.15344,-0.35047 -0.12335,0.28484 0.0238,0.49222 0.11948,0.74294 0.27322,0.71216 0.1305,-0.0268 0.25235,0.1022 0.27053,0.28484 0.0178,0.18293 0.0664,-0.0426 0.10725,-0.50061 0.0406,-0.45811 -0.0178,-0.92389 -0.12811,-1.03501 z m 14.3632,0.11501 c -0.0482,-0.18473 -0.0909,-0.0796 -0.0948,0.23388 -0.003,0.31338 0.0355,0.46455 0.0876,0.33599 0.0522,-0.12871 0.0551,-0.385 0.006,-0.56979 z m -8.36166,-2.23609 c 0.11768,-5.52522 0.15523,-10.37244 0.11113,-14.35518 l -0.0474,-4.29054 -0.80716,-0.24134 c -1.02254,-0.30584 -1.74925,-0.82113 -2.17537,-1.54248 -0.289,-0.48919 -0.41214,-0.54955 -0.90744,-0.44474 -1.23544,0.2616 -3.58287,1.2895 -4.8289,2.11471 l -1.3093,0.86707 0.43845,0.78034 c 0.24103,0.42919 0.73994,1.27886 1.10844,1.88818 0.36849,0.60929 0.75439,1.50663 0.85753,1.99413 0.2899,1.3696 0.47453,10.14424 0.25027,11.88387 -0.26457,2.05088 -0.0301,2.77199 1.01199,3.11469 0.63697,0.20945 5.0758,0.60467 5.97318,0.53185 0.22226,-0.0179 0.28572,-0.46825 0.32479,-2.30047 z m -6.68219,-0.47802 c -0.33957,-0.3752 -0.33269,-0.40022 0.30039,-1.09201 1.72368,-1.88363 2.5578,-2.70213 2.7536,-2.70213 0.11799,0 0.37217,0.17429 0.5649,0.38723 0.34567,0.38193 0.32726,0.41054 -1.3435,2.08908 -0.93167,0.93602 -1.74658,1.70185 -1.81093,1.70185 -0.0643,0 -0.27321,-0.1728 -0.46446,-0.38402 z m 2.10231,-1.42454 c 0.80823,-0.89026 1.41296,-1.67522 1.34386,-1.74431 -0.1582,-0.15821 -3.15663,3.02083 -3.03483,3.2179 0.0495,0.0798 0.11917,0.14509 0.15552,0.14509 0.0363,0 0.72716,-0.7284 1.53542,-1.61866 z m -0.4201,-0.35974 c 0.80036,-0.87923 1.45518,-1.66785 1.45518,-1.75256 0,-0.0846 -0.72641,0.56868 -1.61428,1.45194 -0.88787,0.88324 -1.61431,1.6719 -1.61431,1.75252 0,0.37642 0.42814,0.0268 1.77341,-1.4519 z m -2.99477,-11.78856 c -0.35279,-0.84431 -2.02529,-3.56074 -2.12867,-3.45735 -0.084,0.084 2.27559,4.28765 2.36411,4.2115 0.0322,-0.0269 -0.0736,-0.3671 -0.23538,-0.75415 z m 8.52166,-5.60459 c 0.12126,-0.4563 0.1147,-0.46044 -0.16864,-0.10607 -0.33086,0.4139 -0.392,0.26308 -0.10815,-0.26725 0.32169,-0.60107 -0.32336,-0.64669 -0.66573,-0.0471 -0.29108,0.50989 -0.29317,0.51034 -0.18263,0.0405 0.10756,-0.45705 0.1007,-0.46101 -0.18294,-0.10608 -0.16208,0.20261 -0.29466,0.27203 -0.29466,0.15375 0,-0.11829 0.0855,-0.26785 0.18978,-0.33239 0.10458,-0.0646 0.18712,-0.21928 0.18354,-0.34355 -0.009,-0.32155 -0.75335,0.61274 -0.75335,0.94555 0,0.15135 0.0855,0.22226 0.18979,0.15761 0.10458,-0.0646 0.18979,-0.0208 0.18979,0.095 0,0.11679 0.0855,0.1594 0.18979,0.095 0.10458,-0.0646 0.19128,-0.006 0.19277,0.1311 0.002,0.18055 0.0533,0.17072 0.1871,-0.0363 0.13378,-0.20707 0.18502,-0.2169 0.18711,-0.0363 0.002,0.13675 0.0885,0.19575 0.19277,0.1311 0.10458,-0.0646 0.18979,-0.009 0.18979,0.12185 0,0.36266 0.31687,-0.0453 0.46327,-0.59651 z m 0.86615,0.4748 0.0268,0.37981 0.16327,-0.37981 c 0.0965,-0.22435 0.16864,-0.26964 0.17668,-0.11084 0.006,0.14808 0.0638,0.2184 0.12574,0.15672 0.0617,-0.0617 0.0525,-0.30095 -0.0209,-0.53153 -0.10398,-0.32761 -0.16952,-0.36188 -0.29931,-0.15671 -0.0915,0.1445 -0.16625,0.17697 -0.16625,0.0727 0,-0.10457 0.0715,-0.30253 0.1588,-0.44015 0.11412,-0.17996 0.22912,-0.0733 0.4097,0.37985 0.13796,0.34651 0.27113,0.65771 0.29556,0.69152 0.0406,0.056 1.21147,-0.49312 1.38957,-0.65151 0.0414,-0.0369 -0.15522,-0.43189 -0.43705,-0.87797 -0.50846,-0.80492 -0.5087,-0.80674 -0.0298,-0.24134 0.55789,0.65729 0.67037,0.36334 0.11917,-0.31131 -0.26815,-0.32831 -0.42352,-0.39228 -0.57982,-0.23896 -0.15762,0.15464 -0.10518,0.39293 0.19991,0.91022 0.22734,0.38542 0.36013,0.75406 0.29497,0.81925 -0.0652,0.0652 -0.11888,0.0402 -0.11918,-0.0557 -3.8e-4,-0.0957 -0.17996,-0.46831 -0.39927,-0.82792 -0.35604,-0.58403 -0.41888,-0.61755 -0.58873,-0.31403 -0.13438,0.23984 -0.12037,0.40415 0.0474,0.55885 0.18473,0.17042 0.21154,0.14539 0.12067,-0.11323 -0.18502,-0.52601 0.0238,-0.38684 0.34105,0.22793 0.3654,0.7066 0.36939,1.02695 0.006,0.38927 -0.15612,-0.27351 -0.2744,-0.35616 -0.27827,-0.19516 -0.003,0.18622 -0.10756,0.13586 -0.30862,-0.15136 l -0.30187,-0.431 -0.44909,0.4491 c -0.32509,0.32508 -0.41643,0.57377 -0.33093,0.90082 0.11025,0.42141 0.12782,0.42692 0.26279,0.0822 0.14152,-0.36182 0.1451,-0.36158 0.17131,0.009 z m -2.00516,-1.6349 c 0.20946,0.39129 0.4858,0.367 0.4858,-0.0426 0,-0.10458 -0.0498,-0.14003 -0.11084,-0.0793 -0.0611,0.0608 -0.2747,-0.053 -0.47477,-0.25326 -0.40052,-0.40052 -0.74384,-0.47569 -0.74384,-0.16296 0,0.11053 0.0855,0.14837 0.18979,0.0837 0.30656,-0.1895 0.21899,0.093 -0.18979,0.61289 -0.20886,0.26547 -0.37905,0.62091 -0.37806,0.78964 7.7e-4,0.16863 0.22673,-0.0686 0.50141,-0.52697 0.48094,-0.80257 0.50781,-0.8183 0.72025,-0.42136 z m -0.94522,-0.33584 c -0.0522,-0.14391 0.002,-0.37884 0.12156,-0.52227 0.15851,-0.19097 0.1594,-0.26069 0.003,-0.26069 -0.36891,0 -0.49705,0.0882 -0.44676,0.307 0.0268,0.11649 -0.1019,0.3303 -0.28602,0.4748 -0.30218,0.23716 -0.3101,0.2312 -0.0811,-0.0614 0.13944,-0.17816 0.19635,-0.41696 0.12603,-0.53057 -0.0703,-0.11351 -0.0178,-0.35237 0.11441,-0.5306 0.13319,-0.17817 -0.0325,-0.0641 -0.36748,0.25324 -0.57083,0.54086 -0.59553,0.6172 -0.39028,1.20599 l 0.21899,0.62857 0.46405,-0.54128 c 0.37016,-0.4318 0.40347,-0.44628 0.16476,-0.0718 -0.4246,0.66608 -0.36396,0.95306 0.0813,0.38506 0.20469,-0.261 0.32957,-0.59246 0.27739,-0.73627 z m -1.22782,-0.095 c 0,-0.0393 0.14957,-0.1889 0.33236,-0.33236 0.30121,-0.23627 0.30795,-0.22941 0.0718,0.0718 -0.24819,0.31636 -0.40404,0.41695 -0.40404,0.2607 z m 7.06451,0.84692 c 0.27619,-0.32246 0.27976,-0.40424 0.0325,-0.7122 -0.26159,-0.32546 -0.27232,-0.31728 -0.16566,0.12693 0.10518,0.43848 0.0965,0.44575 -0.11172,0.0951 -0.12395,-0.20886 -0.36317,-0.55075 -0.53133,-0.75967 -0.30315,-0.37657 -0.30208,-0.37672 0.12156,-0.0179 0.23508,0.19903 0.42731,0.27352 0.42731,0.16566 0,-0.36194 -0.56609,-0.7021 -0.79216,-0.47602 -0.14838,0.14837 -0.0921,0.3516 0.2014,0.72451 0.24313,0.30923 0.36283,0.65925 0.29646,0.86817 -0.14451,0.45525 0.12602,0.44787 0.52184,-0.0149 z m -2.69641,-0.49035 0.64427,-0.66471 h -1.39833 -1.3983 l 0.74381,0.65682 c 0.40911,0.36122 0.74843,0.66036 0.75407,0.6647 0.006,0.003 0.30014,-0.29108 0.65448,-0.65681 z m 2.77062,-0.94441 c -0.28095,-0.36844 -0.59609,-0.66987 -0.70015,-0.66987 -0.10399,0 0.0855,0.3418 0.42122,0.75957 0.74518,0.92729 0.99367,0.84736 0.27888,-0.0897 z m -5.10863,-0.81232 c -0.0477,-0.18263 -0.087,-0.0334 -0.087,0.33236 0,0.36558 0.039,0.51514 0.087,0.33236 0.0476,-0.18294 0.0476,-0.48193 0,-0.66472 z m 0.37985,0 c -0.0477,-0.18263 -0.087,-0.0334 -0.087,0.33236 0,0.36558 0.039,0.51514 0.087,0.33236 0.0476,-0.18294 0.0476,-0.48193 0,-0.66472 z m 0.37981,0 c -0.0477,-0.18263 -0.087,-0.0334 -0.087,0.33236 0,0.36558 0.039,0.51514 0.087,0.33236 0.0476,-0.18294 0.0476,-0.48193 0,-0.66472 z m 0.38324,-0.0927 c -0.0455,-0.23627 -0.0843,-0.0876 -0.0864,0.33014 -0.002,0.41781 0.0352,0.61109 0.0825,0.42952 0.0476,-0.18174 0.0492,-0.52342 0.003,-0.75966 z m 2.47471,0.69197 c 0.50206,-0.50206 0.14123,-0.83663 -0.90207,-0.83663 -0.41006,0 -0.56094,0.10339 -0.62333,0.42731 -0.0751,0.38938 -0.0846,0.38375 -0.10815,-0.0635 -0.0387,-0.73386 -0.59562,-0.64469 -0.59562,0.0953 0,0.57812 0.0149,0.5862 0.99471,0.60149 0.56776,0.009 1.09762,-0.0873 1.23446,-0.22435 z m -1.26461,-0.37768 c 0.009,-0.22137 0.0542,-0.26635 0.11471,-0.1147 0.0548,0.13705 0.0479,0.30092 -0.0149,0.36402 -0.0632,0.0632 -0.10786,-0.0492 -0.0998,-0.24938 z m -2.73797,-0.3165 c -0.0527,-0.1305 -0.0959,-0.0239 -0.0959,0.23746 0,0.26129 0.0432,0.36796 0.0959,0.23746 0.0527,-0.1305 0.0527,-0.34424 0,-0.4748 z"
     id="path353"
     sodipodi:nodetypes="ssssssssssssssssscsscsssssscssssssscsssscsssscssscssssssccssscscssssssssssssssssssssccssssscscssccssssssscsssssssssssssssssssssssssssscccccscsscccccccccccsscsssscsssssscsccsssssssscssssscccsssccsssssccsscscssssccscsscssssscsssscccssssssssscssssscsscccsscssscscscssscccssccsssssccsssscsscsscsssscccsscsscccsscsssssssssssscssssssccssssssssssccsssssssssscsssssssssssssssssssssssssssssssssscscscsssssssssccsccsscsssssssssssssscsssscsssssssssssssssssssssssssscsssssssscsscscccccsssccsscssssssssssssscsssssscscsssccssscscscscsccsssssscscscsccssssscsssssssssccscccscsssssssssssssssssccsccssssscsssscssssss" />
  <rect
     style="fill:none;stroke:#0000ff;stroke-width:0.5;stroke-dasharray:none;stroke-opacity:1;paint-order:markers stroke fill"
     id="rect186949-6"
     width="124.98217"
     height="63.482166"
     x="0.25"
     y="0.25"
     rx="3"
     ry="3" />
  <ellipse
     style="fill:none;stroke:#0000ff;stroke-width:0.453783;stroke-dasharray:none;stroke-opacity:1;paint-order:markers stroke fill"
     id="path190476-6"
     cx="3.2410889"
     cy="4.2911682"
     rx="1.2731084"
     ry="1.2731086" />
  <ellipse
     style="fill:none;stroke:#0000ff;stroke-width:0.453784;stroke-dasharray:none;stroke-opacity:1;paint-order:markers stroke fill"
     id="path190476-9-4"
     cx="122.24109"
     cy="4.2321625"
     rx="1.2731084"
     ry="1.2731082" />
  <ellipse
     style="fill:none;stroke:#0000ff;stroke-width:0.453784;stroke-dasharray:none;stroke-opacity:1;paint-order:markers stroke fill"
     id="path190476-9-1-4"
     cx="122.24109"
     cy="60.232178"
     rx="1.2731084"
     ry="1.2731082" />
  <ellipse
     style="fill:none;stroke:#0000ff;stroke-width:0.453784;stroke-dasharray:none;stroke-opacity:1;paint-order:markers stroke fill"
     id="path190476-9-6-2"
     cx="3.2410889"
     cy="60.232178"
     rx="1.2731084"
     ry="1.2731082" />
</svg>
